<svg width="208" height="24" xmlns="http://www.w3.org/2000/svg"><g fill="none" fill-rule="evenodd"><path d="M11.718 23.534C5.275 23.534 0 18.271 0 11.767 0 5.297 5.275 0 11.718 0c3.405 0 6.61 1.475 8.847 4.023.701.805.601 2.045-.2 2.75-.802.703-2.037.636-2.738-.168-1.502-1.71-3.639-2.716-5.91-2.716-4.306 0-7.844 3.553-7.844 7.878 0 4.359 3.538 7.879 7.845 7.879 2.036 0 3.973-.805 5.442-2.18v-2.983h-4.708a1.942 1.942 0 0 1-1.936-1.945c0-1.073.868-1.945 1.936-1.945h6.644c1.069 0 1.937.872 1.937 1.945v5.7c0 .468-.167.938-.467 1.273-2.238 2.581-5.442 4.023-8.848 4.023zm20.876-18.07a1.95 1.95 0 0 1 1.97 1.945 1.95 1.95 0 0 1-1.97 1.944c-2.137 0-3.74 1.744-3.74 4.124v8.113a1.942 1.942 0 0 1-1.936 1.945 1.942 1.942 0 0 1-1.936-1.945V7.007c0-1.073.868-1.945 1.936-1.945.902 0 1.636.604 1.87 1.442a7.456 7.456 0 0 1 3.806-1.04zm12.112 18.171c-5.074 0-9.18-4.157-9.18-9.22 0-5.095 4.106-9.252 9.18-9.252s9.214 4.157 9.214 9.253c0 5.062-4.14 9.219-9.214 9.219zm0-14.583c-2.938 0-5.308 2.413-5.308 5.364 0 2.917 2.37 5.33 5.308 5.33 2.938 0 5.308-2.413 5.308-5.33 0-2.95-2.37-5.364-5.308-5.364zM93.75 19.076c.834.67.934 1.91.234 2.749a4.98 4.98 0 0 1-3.74 1.71c-2.704 0-4.907-2.213-4.907-4.929V8.951c-1.002-.033-1.836-.905-1.836-1.945 0-1.038.834-1.91 1.836-1.944V2.917a1.95 1.95 0 0 1 1.97-1.945c1.068 0 1.936.872 1.936 1.945v2.145h2.47c1.068 0 1.936.872 1.936 1.945a1.942 1.942 0 0 1-1.936 1.944h-2.47v9.655c0 .57.434 1.04 1.001 1.04a.98.98 0 0 0 .768-.369c.701-.805 1.936-.905 2.737-.201zm16.683-11.6c1.369 1.475 2.103 3.487 2.103 5.599v8.515a1.942 1.942 0 0 1-1.936 1.944 1.942 1.942 0 0 1-1.936-1.944v-8.515c0-2.38-1.57-4.124-3.74-4.124-2.169 0-3.738 1.743-3.738 4.124v8.515a1.949 1.949 0 0 1-1.97 1.944 1.942 1.942 0 0 1-1.936-1.944V1.945A1.94 1.94 0 0 1 99.215 0a1.95 1.95 0 0 1 1.97 1.945v4.09c1.101-.637 2.37-.973 3.739-.973 2.136 0 4.106.872 5.508 2.414zM145.132 0c1.069 0 1.937.871 1.937 1.945a1.941 1.941 0 0 1-1.936 1.944h-5.309V21.59a1.95 1.95 0 0 1-1.97 1.945 1.942 1.942 0 0 1-1.935-1.945V3.89h-5.31a1.942 1.942 0 0 1-1.935-1.945c0-1.073.868-1.944 1.936-1.944h14.522zm9.466 23.635c-5.075 0-9.181-4.157-9.181-9.22 0-5.095 4.106-9.252 9.18-9.252 5.075 0 9.215 4.157 9.215 9.253 0 5.062-4.14 9.219-9.214 9.219zm0-14.583c-2.938 0-5.309 2.413-5.309 5.364 0 2.917 2.37 5.33 5.309 5.33 2.937 0 5.308-2.413 5.308-5.33 0-2.95-2.37-5.364-5.308-5.364zm20.85 14.583c-5.074 0-9.18-4.157-9.18-9.22 0-5.095 4.106-9.252 9.18-9.252 5.075 0 9.214 4.157 9.214 9.253 0 5.062-4.14 9.219-9.214 9.219zm0-14.583c-2.937 0-5.308 2.413-5.308 5.364 0 2.917 2.37 5.33 5.308 5.33 2.938 0 5.309-2.413 5.309-5.33 0-2.95-2.37-5.364-5.309-5.364zm14.52 14.482a1.942 1.942 0 0 1-1.936-1.944V1.945c0-1.073.868-1.945 1.936-1.945 1.069 0 1.97.872 1.97 1.945V21.59c0 1.073-.902 1.945-1.97 1.945zm11.722 0c-2.637 0-4.874-1.307-5.809-3.386a1.927 1.927 0 0 1 .935-2.58 1.902 1.902 0 0 1 2.57.938c.268.536 1.002 1.14 2.304 1.14 1.803 0 2.437-1.107 2.437-1.844 0-1.006-.267-1.308-2.871-1.978-1.169-.268-2.37-.57-3.405-1.24-1.402-.94-2.17-2.347-2.17-4.09 0-1.375.6-2.75 1.636-3.755 1.101-1.073 2.637-1.677 4.373-1.677 2.47 0 4.574 1.207 5.475 3.185.467.973.033 2.112-.934 2.582a1.912 1.912 0 0 1-2.571-.939c-.2-.436-.835-.939-1.97-.939-1.536 0-2.103.973-2.103 1.542 0 .67.133.939 2.604 1.576 2.17.536 5.809 1.442 5.809 5.733 0 1.441-.601 2.883-1.67 3.956-.834.804-2.303 1.776-4.64 1.776z" fill="#FFF"/><path d="M59.337 7.001a1.89 1.89 0 0 1 1.892 1.891v12.795a1.892 1.892 0 0 1-3.783 0V8.892a1.892 1.892 0 0 1 1.891-1.89zm12.521 1.656a1.89 1.89 0 0 1 1.891 1.89v11.14a1.892 1.892 0 0 1-3.782 0v-11.14a1.892 1.892 0 0 1 1.891-1.89zm-6.147 5.402a1.89 1.89 0 0 1 1.891 1.89v5.738a1.892 1.892 0 0 1-3.782 0V15.95a1.892 1.892 0 0 1 1.891-1.89zM78.383.75a1.89 1.89 0 0 1 1.891 1.89v19.047a1.892 1.892 0 0 1-3.783 0V2.64A1.892 1.892 0 0 1 78.383.75z" fill="#2CD886"/></g></svg>